<svg xmlns:xlink="http://www.w3.org/1999/xlink" xmlns="http://www.w3.org/2000/svg" id="beam" width="40" height="40" viewBox="0 0 34 34">
  <g id="Grupo_490" data-name="Grupo 490" transform="translate(0 0)">
    <g id="Grupo_489" data-name="Grupo 489" transform="translate(0)">
      <path id="Trazado_1175" data-name="Trazado 1175" d="M34,14.713a.559.559,0,0,0-.039-.2h0c0-.005-.006-.009-.008-.014a.587.587,0,0,0-.262-.269.542.542,0,0,0-.054-.026.559.559,0,0,0-.2-.04H28.617a2.553,2.553,0,0,1-2.55-2.55V.567c0-.009,0-.017-.005-.026a.56.56,0,0,0-.035-.175c0-.007,0-.016-.006-.023v0a.56.56,0,0,0-.108-.158A.548.548,0,0,0,25.87.145a.557.557,0,0,0-.119-.08A.551.551,0,0,0,25.5,0H22.1a.565.565,0,0,0-.416.182L7.518,15.482a.534.534,0,0,0-.041.066.375.375,0,0,0-.094.239.536.536,0,0,0-.016.079v6.565l-7.2,7.2a.575.575,0,0,0-.166.4v3.4A.567.567,0,0,0,.567,34H18.7a.563.563,0,0,0,.222-.046c.007,0,.011-.009.018-.012a.564.564,0,0,0,.164-.114l.006,0,11.323-11.89,3.4-3.4a.567.567,0,0,0,.166-.4v-3.4C34,14.726,34,14.72,34,14.713ZM22.347,1.133H24.2L11.086,15.3H9.23ZM7.367,24.035v2.882a2.553,2.553,0,0,1-2.55,2.55H1.935Zm10.767,8.832h-17V30.6H4.817A3.688,3.688,0,0,0,8.5,26.917V16.433h2.267V26.917A3.688,3.688,0,0,0,14.45,30.6h3.683v2.267Zm.324-3.4H14.45a2.553,2.553,0,0,1-2.55-2.55V16.088L24.933,2.012v9.6a3.688,3.688,0,0,0,3.3,3.663.536.536,0,0,0,.1.02h3.732l-2.443,2.443ZM32.867,17.9l-3.244,3.244L19.267,32.016V30.26L30.434,18.534,32.867,16.1v1.8Z" transform="translate(0 0)"/>
      <path id="Trazado_1176" data-name="Trazado 1176" d="M204.964,400.927a.57.57,0,0,0-.164.4.561.561,0,0,0,.567.567.572.572,0,0,0,.4-.164.586.586,0,0,0,.164-.4.572.572,0,0,0-.164-.4A.582.582,0,0,0,204.964,400.927Z" transform="translate(-191.2 -374.152)"/>
      <path id="Trazado_1177" data-name="Trazado 1177" d="M231.679,364.915a.567.567,0,0,0-.544.16h0l-.567.594a.567.567,0,0,0,.82.782l.567-.594a.567.567,0,0,0-.276-.942Z" transform="translate(-215.112 -340.667)"/>
      <path id="Trazado_1178" data-name="Trazado 1178" d="M265.255,329.316l-.567.594a.567.567,0,1,0,.82.783l.567-.594a.567.567,0,0,0-.82-.783Z" transform="translate(-246.966 -307.283)"/>
      <path id="Trazado_1179" data-name="Trazado 1179" d="M299.389,293.558l-.567.594a.567.567,0,1,0,.82.783l.567-.594a.567.567,0,1,0-.82-.783Z" transform="translate(-278.832 -273.9)"/>
      <path id="Trazado_1180" data-name="Trazado 1180" d="M334.066,257.64a.567.567,0,0,0-.544.16l-.567.594a.567.567,0,0,0,.82.783l.567-.594a.567.567,0,0,0-.276-.942Z" transform="translate(-310.699 -240.516)"/>
      <path id="Trazado_1181" data-name="Trazado 1181" d="M367.1,231.089a.584.584,0,0,0-.164.4.547.547,0,0,0,.164.4.561.561,0,0,0,.8,0,.549.549,0,0,0,.164-.4.586.586,0,0,0-.164-.4A.593.593,0,0,0,367.1,231.089Z" transform="translate(-342.566 -215.596)"/>
    </g>
  </g>
</svg>