<svg xmlns:xlink="http://www.w3.org/1999/xlink" xmlns="http://www.w3.org/2000/svg" width="71.592" height="31.912" viewBox="0 0 71.592 31.912">
  <path id="Sustracción_3" data-name="Sustracción 3" d="M2461.635,2105.913a5.982,5.982,0,1,1,5.943-5.981A5.968,5.968,0,0,1,2461.635,2105.913Zm0-9.921a3.939,3.939,0,1,0,3.914,3.939A3.931,3.931,0,0,0,2461.635,2095.992Zm-40.947,9.848a5.982,5.982,0,1,1,5.942-5.981A5.969,5.969,0,0,1,2420.688,2105.84Zm0-9.921a3.939,3.939,0,1,0,3.913,3.939A3.931,3.931,0,0,0,2420.688,2095.919Zm33.018,4.782H2428.5a1.029,1.029,0,0,1-1.014-1,6.831,6.831,0,0,0-2.073-4.68,6.765,6.765,0,0,0-9.439,0,6.837,6.837,0,0,0-2.076,4.678,1.033,1.033,0,0,1-1.013,1h-6.245a1.69,1.69,0,0,1-1.639-1.691v-6.554a6.7,6.7,0,0,1,1.216-3.875,6.553,6.553,0,0,1,3.218-2.46,32.769,32.769,0,0,1,10.436-1.867,41.692,41.692,0,0,1,11.953-7.768,33.336,33.336,0,0,1,4.37-1.5,28.074,28.074,0,0,1,5.958-.924,1.236,1.236,0,0,1,.282-.032c.038,0,.069,0,.1,0,.092,0,.183-.008.28-.014h.023l.025,0c.127-.008.262-.015.4-.015h21.108a3.923,3.923,0,0,1,2.547.969l8.319,7.2a3.94,3.94,0,0,1,1.366,2.991v6.457a9.038,9.038,0,0,1-1.717,5.319,8.941,8.941,0,0,1-4.494,3.287,8.648,8.648,0,0,1-.862.232,1.1,1.1,0,0,1-.209.021,1.015,1.015,0,0,1-1.011-.956,6.829,6.829,0,0,0-6.785-6.421h-.089a6.812,6.812,0,0,0-6.7,6.6A1.035,1.035,0,0,1,2453.706,2100.7Zm-13.194-2.043h0v.006h3.739v-.006h8.53a8.844,8.844,0,0,1,8.47-7.585c.086,0,.172,0,.269,0a8.811,8.811,0,0,1,5.557,1.985,8.926,8.926,0,0,1,3.082,5.079,6.977,6.977,0,0,0,1.529-.844,7.057,7.057,0,0,0,2.876-5.672v-.4h-2.512a1.021,1.021,0,0,1,0-2.042h2.512v-2.727l-1.243,0V2084.4l1.114,0a1.994,1.994,0,0,0-.529-.691l-8.319-7.188a1.9,1.9,0,0,0-1.227-.476h-4.869v.036h-2.03v-.036H2443.4v.223h-2.029v-.105a25.384,25.384,0,0,0-4.661.8,31.265,31.265,0,0,0-4.109,1.408,40.062,40.062,0,0,0-9.638,5.887h.442l-2.039,2.038-1.08,0a30.733,30.733,0,0,0-10.181,1.752,4.552,4.552,0,0,0-2.233,1.707,4.665,4.665,0,0,0-.847,2.7v6.2h4.931a8.8,8.8,0,0,1,2.924-5.414,8.7,8.7,0,0,1,5.73-2.156h.155a8.709,8.709,0,0,1,5.73,2.155,8.817,8.817,0,0,1,2.924,5.415Zm19.568-9.841H2456.5a1.022,1.022,0,0,1,0-2.043h3.582a1.022,1.022,0,0,1,0,2.043Zm-20.564,0h-3.581a1.022,1.022,0,0,1,0-2.043h3.581a1.017,1.017,0,0,1,1,.83v.383A1.017,1.017,0,0,1,2439.516,2088.817Z" transform="translate(-2405 -2074)"/>
</svg>