<svg xmlns:xlink="http://www.w3.org/1999/xlink" xmlns="http://www.w3.org/2000/svg" width="43.089" height="40.216" viewBox="0 0 43.089 40.216">
  <g id="seven_segment-Component-electronic" data-name="seven segment-Component-electronic" transform="translate(-2 -4)">
    <path id="Trazado_1130" data-name="Trazado 1130" d="M44.37,11.9H42.934V9.745a.718.718,0,0,0-.718-.718H41.5V4H40.062V9.027h-.718a.718.718,0,0,0-.718.718V11.9H37.189V9.745a.718.718,0,0,0-.718-.718h-.718V4H34.316V9.027H33.6a.718.718,0,0,0-.718.718V11.9H31.444V9.745a.718.718,0,0,0-.718-.718h-.718V4H28.571V9.027h-.718a.718.718,0,0,0-.718.718V11.9H25.7V9.745a.718.718,0,0,0-.718-.718h-.718V4H22.826V9.027h-.718a.718.718,0,0,0-.718.718V11.9H19.954V9.745a.718.718,0,0,0-.718-.718h-.718V4H17.081V9.027h-.718a.718.718,0,0,0-.718.718V11.9H14.208V9.745a.718.718,0,0,0-.718-.718h-.718V4H11.336V9.027h-.718a.718.718,0,0,0-.718.718V11.9H8.463V9.745a.718.718,0,0,0-.718-.718H7.027V4H5.591V9.027H4.873a.718.718,0,0,0-.718.718V11.9H2.718A.718.718,0,0,0,2,12.618V35.6a.718.718,0,0,0,.718.718H4.154v2.154a.718.718,0,0,0,.718.718h.718v5.027H7.027V39.189h.718a.718.718,0,0,0,.718-.718V36.316H9.9v2.154a.718.718,0,0,0,.718.718h.718v5.027h1.436V39.189h.718a.718.718,0,0,0,.718-.718V36.316h1.436v2.154a.718.718,0,0,0,.718.718h.718v5.027h1.436V39.189h.718a.718.718,0,0,0,.718-.718V36.316H21.39v2.154a.718.718,0,0,0,.718.718h.718v5.027h1.436V39.189h.718a.718.718,0,0,0,.718-.718V36.316h1.436v2.154a.718.718,0,0,0,.718.718h.718v5.027h1.436V39.189h.718a.718.718,0,0,0,.718-.718V36.316H32.88v2.154a.718.718,0,0,0,.718.718h.718v5.027h1.436V39.189h.718a.718.718,0,0,0,.718-.718V36.316h1.436v2.154a.718.718,0,0,0,.718.718h.718v5.027H41.5V39.189h.718a.718.718,0,0,0,.718-.718V36.316H44.37a.718.718,0,0,0,.718-.718V12.618A.718.718,0,0,0,44.37,11.9Zm-4.309-1.436H41.5V11.9H40.062Zm-5.745,0h1.436V11.9H34.316Zm-5.745,0h1.436V11.9H28.571Zm-5.745,0h1.436V11.9H22.826Zm-5.745,0h1.436V11.9H17.081Zm-5.745,0h1.436V11.9H11.336Zm-5.745,0H7.027V11.9H5.591ZM7.027,37.753H5.591V36.316H7.027Zm5.745,0H11.336V36.316h1.436Zm5.745,0H17.081V36.316h1.436Zm5.745,0H22.826V36.316h1.436Zm5.745,0H28.571V36.316h1.436Zm5.745,0H34.316V36.316h1.436Zm5.745,0H40.062V36.316H41.5Zm2.154-2.873H3.436V13.336H43.652Z"/>
    <path id="Trazado_1131" data-name="Trazado 1131" d="M41.316,19H9.718A.718.718,0,0,0,9,19.718V36.954a.718.718,0,0,0,.718.718h31.6a.718.718,0,0,0,.718-.718V19.718A.718.718,0,0,0,41.316,19ZM40.6,36.235H10.436v-15.8H40.6Z" transform="translate(-1.973 -4.228)"/>
    <path id="Trazado_1132" data-name="Trazado 1132" d="M16.718,36.363H23.9V34.927h.718V29.9H23.9V28.463h.718V23.436H23.9V22H16.718v1.436H16v5.027h.718V29.9H16v5.027h.718Zm.718-12.927h5.745v5.027H17.436Zm0,6.463h5.745v5.027H17.436Z" transform="translate(-3.946 -5.073)"/>
    <path id="Trazado_1133" data-name="Trazado 1133" d="M36.718,36.363H43.9V34.927h.718V29.9H43.9V28.463h.718V23.436H43.9V22H36.718v1.436H36v5.027h.718V29.9H36v5.027h.718Zm.718-12.927h5.745v5.027H37.436Zm0,6.463h5.745v5.027H37.436Z" transform="translate(-9.583 -5.073)"/>
    <path id="Trazado_1134" data-name="Trazado 1134" d="M31,40h1.436v1.436H31Z" transform="translate(-8.174 -10.147)"/>
    <path id="Trazado_1135" data-name="Trazado 1135" d="M50,40h1.436v1.436H50Z" transform="translate(-13.529 -10.147)"/>
  </g>
</svg>