<svg xmlns:xlink="http://www.w3.org/1999/xlink" xmlns="http://www.w3.org/2000/svg" width="39" height="46.499681673487956" viewBox="0 0 32.985 39.328">
  <g id="_004-shift" data-name="004-shift" transform="translate(-6 -1)">
    <path id="Trazado_1063" data-name="Trazado 1063" d="M23.127,1H15.515a1.905,1.905,0,0,0-1.9,1.9V5.44H6.634A.634.634,0,0,0,6,6.075V39.694a.634.634,0,0,0,.634.634H32.007a.634.634,0,0,0,.634-.634V35.888h2.537v1.269a.634.634,0,0,0,.634.634h.634a2.537,2.537,0,1,0,0-5.075h-.634a.634.634,0,0,0-.634.634v1.269H32.642V29.545h2.537v1.9h1.269V29.1l1.375,2.063a.634.634,0,0,0,1.162-.352v-4.44H37.716v2.345l-1.375-2.063a.634.634,0,0,0-1.162.352v1.269H32.642V23.2h2.537v1.9h1.269V23.318A1.9,1.9,0,0,1,37.716,25.1h1.269a3.156,3.156,0,0,0-.894-2.2,1.9,1.9,0,0,0-1.009-3.51H35.813a.634.634,0,0,0-.634.634v1.9H32.642V16.224h2.537v1.9h1.269v-1.9h.634a1.9,1.9,0,1,0,0-3.806H35.813a.634.634,0,0,0-.634.634v1.9H32.642V6.075a.634.634,0,0,0-.634-.634H25.03V2.9A1.905,1.905,0,0,0,23.127,1ZM36.448,33.985a1.269,1.269,0,1,1,0,2.537Zm0-13.321h.634a.634.634,0,1,1,0,1.269h-.634Zm0-6.978h.634a.634.634,0,1,1,0,1.269h-.634ZM14.881,11.032v2.02a.634.634,0,0,0,.634.634h1.9v3.806h-1.9a.634.634,0,0,0-.634.634V33.351a.634.634,0,0,0,.634.634h7.612a.634.634,0,0,0,.634-.634V18.127a.634.634,0,0,0-.634-.634h-1.9V13.686h1.9a.634.634,0,0,0,.634-.634v-2.02A1.9,1.9,0,0,0,25.03,9.246h3.806V36.522H9.806V9.246h3.806A1.9,1.9,0,0,0,14.881,11.032Zm3.172,15.975h2.537a.634.634,0,0,0,.634-.634V18.761h1.269V32.716H16.149V18.761h1.269v7.612A.634.634,0,0,0,18.052,27.007Zm1.9-1.269H18.686V13.686h1.269ZM16.149,12.418V11.149h6.343v1.269ZM14.881,2.9a.635.635,0,0,1,.634-.634h7.612a.635.635,0,0,1,.634.634V9.246a.635.635,0,0,1-.634.634H15.515a.635.635,0,0,1-.634-.634ZM31.373,6.709V39.059H7.269V6.709h6.343V7.978H9.172a.634.634,0,0,0-.634.634V37.157a.634.634,0,0,0,.634.634h20.3a.634.634,0,0,0,.634-.634V8.612a.634.634,0,0,0-.634-.634H25.03V6.709Z" fill="#fff"/>
    <path id="Trazado_1064" data-name="Trazado 1064" d="M38,53h1.269v1.269H38Z" transform="translate(-11.702 -19.015)" fill="#fff"/>
    <path id="Trazado_1065" data-name="Trazado 1065" d="M14,53h1.269v1.269H14Z" transform="translate(-2.925 -19.015)" fill="#fff"/>
  </g>
</svg>