<svg xmlns="http://www.w3.org/2000/svg" width="41" height="41" viewBox="0 0 41 41">
  <g id="Grupo_142" data-name="Grupo 142" transform="translate(-706 -1675)">
    <g id="_005-youtube" data-name="005-youtube" transform="translate(716.056 1687.731)">
      <g id="Grupo_141" data-name="Grupo 141">
        <path id="Trazado_899" data-name="Trazado 899" d="M20.583,81.424c-.583-1.037-1.216-1.228-2.5-1.3S13.555,80,10.751,80s-6.047.036-7.333.122-1.92.263-2.508,1.3S0,84.244,0,87.385V87.4c0,3.128.309,4.925.91,5.95s1.221,1.225,2.507,1.313,4.525.12,7.334.12,6.04-.044,7.329-.118,1.921-.275,2.5-1.313c.606-1.025.912-2.823.912-5.95v-.011C21.5,84.244,21.19,82.46,20.583,81.424Zm-12.521,10V83.359l6.718,4.031Z" transform="translate(0 -80)" fill="#fff"/>
      </g>
    </g>
    <g id="Elipse_27" data-name="Elipse 27" transform="translate(706 1675)" fill="none" stroke="#fff" stroke-width="1">
      <circle cx="20.5" cy="20.5" r="20.5" stroke="none"/>
      <circle cx="20.5" cy="20.5" r="20" fill="none"/>
    </g>
  </g>
</svg>
