<svg xmlns="http://www.w3.org/2000/svg" width="41" height="41" viewBox="0 0 41 41">
  <g id="Grupo_144" data-name="Grupo 144" transform="translate(-606 -1675)">
    <g id="_002-twitter" data-name="002-twitter" transform="translate(616.214 1687.451)">
      <g id="Grupo_140" data-name="Grupo 140" transform="translate(0)">
        <path id="Trazado_892" data-name="Trazado 892" d="M21.482,50.066a9.182,9.182,0,0,1-2.538.7,4.379,4.379,0,0,0,1.937-2.434,8.8,8.8,0,0,1-2.793,1.066,4.4,4.4,0,0,0-7.618,3.012,4.535,4.535,0,0,0,.1,1A12.466,12.466,0,0,1,1.5,48.8a4.405,4.405,0,0,0,1.353,5.886,4.349,4.349,0,0,1-1.99-.542v.048a4.424,4.424,0,0,0,3.528,4.327,4.4,4.4,0,0,1-1.155.145,3.894,3.894,0,0,1-.834-.075A4.446,4.446,0,0,0,6.514,61.66a8.849,8.849,0,0,1-5.46,1.878A8.248,8.248,0,0,1,0,63.478a12.4,12.4,0,0,0,6.756,1.976A12.448,12.448,0,0,0,19.291,52.922c0-.195-.007-.383-.016-.569A8.786,8.786,0,0,0,21.482,50.066Z" transform="translate(0 -48)" fill="#fff"/>
      </g>
    </g>
    <g id="Elipse_25" data-name="Elipse 25" transform="translate(606 1675)" fill="none" stroke="#fff" stroke-width="1">
      <circle cx="20.5" cy="20.5" r="20.5" stroke="none"/>
      <circle cx="20.5" cy="20.5" r="20" fill="none"/>
    </g>
  </g>
</svg>
