<svg xmlns="http://www.w3.org/2000/svg" width="41" height="41" viewBox="0 0 41 41">
  <g id="Grupo_143" data-name="Grupo 143" transform="translate(-656 -1675)">
    <g id="_003-instagram" data-name="003-instagram" transform="translate(667.681 1686.451)">
      <path id="Trazado_893" data-name="Trazado 893" d="M13.456,0H4.994A5,5,0,0,0,0,4.994v8.462A5,5,0,0,0,4.994,18.45h8.462a5,5,0,0,0,4.994-4.994V4.994A5,5,0,0,0,13.456,0ZM9.225,14.27A5.045,5.045,0,1,1,14.27,9.225,5.05,5.05,0,0,1,9.225,14.27Zm5.165-8.9a1.491,1.491,0,1,1,1.491-1.491A1.492,1.492,0,0,1,14.39,5.37Zm0,0" fill="#fff"/>
      <path id="Trazado_894" data-name="Trazado 894" d="M149.769,146.02a3.749,3.749,0,1,0,3.749,3.749A3.754,3.754,0,0,0,149.769,146.02Zm0,0" transform="translate(-140.544 -140.544)" fill="#fff"/>
      <path id="Trazado_895" data-name="Trazado 895" d="M388.379,96.3a.387.387,0,1,0,.387.387A.387.387,0,0,0,388.379,96.3Zm0,0" transform="translate(-373.976 -92.822)" fill="#fff"/>
    </g>
    <g id="Elipse_26" data-name="Elipse 26" transform="translate(656 1675)" fill="none" stroke="#fff" stroke-width="1">
      <circle cx="20.5" cy="20.5" r="20.5" stroke="none"/>
      <circle cx="20.5" cy="20.5" r="20" fill="none"/>
    </g>
  </g>
</svg>
