<svg xmlns:xlink="http://www.w3.org/1999/xlink" xmlns="http://www.w3.org/2000/svg" width="126" height="36" viewBox="0 0 126 36">
  <g id="Grupo_540" data-name="Grupo 540" transform="translate(5965 2644)">
    <g id="logo-korando" transform="translate(-5967.6 -2639.3)">
      <path id="Trazado_1230" data-name="Trazado 1230" d="M28.57,10.93H21.72a2.89,2.89,0,1,0,0,5.78h6.85a2.89,2.89,0,1,0,0-5.78m.25,2.89a1.11,1.11,0,0,1-1.08,1.12H22.55a1.121,1.121,0,0,1,0-2.24h5.19a1.117,1.117,0,0,1,1.08,1.12" fill="#fff" fill-rule="evenodd"/>
      <path id="Trazado_1231" data-name="Trazado 1231" d="M106.13,10.93H99.28a2.9,2.9,0,1,0,0,5.79h6.85a2.9,2.9,0,1,0,0-5.79m-.83,1.78a1.1,1.1,0,0,1,1.08,1.11,1.11,1.11,0,0,1-1.08,1.12h-5.19a1.116,1.116,0,0,1,0-2.23Z" fill="#fff" fill-rule="evenodd"/>
      <path id="Trazado_1232" data-name="Trazado 1232" d="M60.76,14.68c-.27-.27-1.99-2.33-2.37-2.78a2.4,2.4,0,0,0-2.08-.97H50.8a2.89,2.89,0,1,0,0,5.78h5.76c.18,0,.24-.12.12-.26l-1.25-1.52h-3.8a1.116,1.116,0,0,1,0-2.23h4.21a.918.918,0,0,1,.78.44c.26.32,2.1,2.52,2.37,2.79a2.948,2.948,0,0,0,2.07.78h1.7V14.94H61.53a1.075,1.075,0,0,1-.77-.26" fill="#fff" fill-rule="evenodd"/>
      <path id="Trazado_1233" data-name="Trazado 1233" d="M8.09,13.83a1.11,1.11,0,0,1,1.08-1.12h6.88c.19,0,.24-.12.12-.26l-1.26-1.52H8.7a2.916,2.916,0,0,0-2.51,1.44V8.7H3.6v8.02H6.19V15.28A2.959,2.959,0,0,0,8.7,16.72h7.69V14.94H9.18a1.1,1.1,0,0,1-1.09-1.11" fill="#fff" fill-rule="evenodd"/>
      <path id="Trazado_1234" data-name="Trazado 1234" d="M44.4,10.94H37.27a2.909,2.909,0,0,0-2.91,2.89v2.89h2.77V13.83a1.1,1.1,0,0,1,1.08-1.11h7.32c.18,0,.24-.12.12-.26Z" fill="#fff" fill-rule="evenodd"/>
      <path id="Trazado_1235" data-name="Trazado 1235" d="M90.82,13.82a1.11,1.11,0,0,1-1.08,1.12h-5.2a1.121,1.121,0,0,1,0-2.24h4.17c.18,0,.24-.12.12-.26l-1.25-1.52H83.6a2.89,2.89,0,1,0,0,5.78h6.97a2.909,2.909,0,0,0,2.91-2.89V8.7H90.82Z" fill="#fff" fill-rule="evenodd"/>
      <path id="Trazado_1236" data-name="Trazado 1236" d="M75.15,13.76c0,.59-.2,1.08-1.04.58-.32-.19-.6-.37-1.05-.68s-2.08-1.45-2.55-1.78a4.7,4.7,0,0,0-2.7-1.01c-1.88,0-2.7,1.4-2.71,3.01v2.83h2.61V13.88c0-.64.26-1.04,1.04-.58.32.19.58.36,1.05.68s1.59,1.11,2.56,1.78a4.7,4.7,0,0,0,2.7,1.01c1.88,0,2.7-1.4,2.71-3.01V10.93H75.15v2.83Z" fill="#fff" fill-rule="evenodd"/>
      <path id="Trazado_1237" data-name="Trazado 1237" d="M124.67,12.13c-.11,6.23-9.47,5.56-8.98-.41a4.536,4.536,0,0,1,4.49-4.08V5.3a6.733,6.733,0,0,0-6.83,5.99,6.95,6.95,0,0,0,7.82,7.65,6.731,6.731,0,0,0,5.82-6.82h-2.32Z" fill="#fff" fill-rule="evenodd"/>
    </g>
    <rect id="Rectángulo_546" data-name="Rectángulo 546" width="126" height="36" transform="translate(-5965 -2644)" fill="none"/>
  </g>
</svg>