<svg xmlns:xlink="http://www.w3.org/1999/xlink" xmlns="http://www.w3.org/2000/svg" width="126" height="36" viewBox="0 0 126 36">
  <g id="Grupo_540" data-name="Grupo 540" transform="translate(5965 2644)">
    <path id="logo-tivoli" d="M59.258,17.508c-2.3,0-3.167-3.167-3.167-5.779s.871-5.779,3.167-5.779,3.167,3.167,3.167,5.779-.871,5.779-3.167,5.779M59.258,5c-3.958,0-5.937,3.087-5.937,6.729s1.979,6.729,5.937,6.729S65.2,15.371,65.2,11.729,63.3,5,59.258,5m24.067,8.471a5.787,5.787,0,0,1-1.5,2.929,3.541,3.541,0,0,1-3.008.633c-1.108-.317-1.187-.792-1.187-1.583V8.167c0-1.267.238-1.821,1.662-2.137V5.317H73.508v.712c1.425.237,1.662.871,1.662,2.137v7.362c0,1.187-.158,1.662-1.662,1.979v.712H83.72c.079-1.662.158-3.008.238-4.671l-.633-.079M6.612,5h-1.5a46.138,46.138,0,0,0-4.671.237C.358,6.346.279,7.137.2,8.246H.833A2.967,2.967,0,0,1,4,6.029c.475,0,.712.158.712.871v8.55c0,1.425-.633,1.821-1.662,1.979v.712H8.829v-.712c-1.108-.079-1.662-.475-1.662-1.9V6.979c0-.712.158-.871.712-.871a2.9,2.9,0,0,1,3.167,2.137h.633c-.079-1.187-.158-1.979-.158-3.008C9.858,5.158,8.2,5.079,6.612,5m14.012.237V5.95c1.108.237,1.662.633,1.662,2.217v7.362c0,1.425-.554,1.821-1.662,1.979v.712H26.4v-.712c-1.108-.237-1.662-.554-1.662-1.979V8.087c0-1.5.554-1.9,1.662-2.137V5.237H20.625m21.612,0V5.95c1.346,0,1.9.317,1.425,1.9-.633,1.9-1.979,6.175-1.979,6.175-.792-2.217-1.583-4.987-2.3-7.2-.237-.792,0-.871.633-.871h.554V5.237H35.033V5.95c1.029,0,1.267.317,1.5.95,1.267,3.483,2.692,7.917,3.958,11.242h.871S43.9,10.7,44.85,7.929c.475-1.346,1.029-1.979,2.3-1.979V5.237H42.237m56.6.792V5.237H93.062V5.95c1.108.237,1.662.633,1.662,2.137V15.45c0,1.425-.633,1.821-1.662,1.979v.712h5.779v-.712c-1.108-.237-1.662-.554-1.662-1.979V8.087c0-1.5.475-1.9,1.662-2.058" transform="translate(-5952.2 -2638)" fill="#fff"/>
    <rect id="Rectángulo_546" data-name="Rectángulo 546" width="126" height="36" transform="translate(-5965 -2644)" fill="none"/>
  </g>
</svg>