<svg xmlns:xlink="http://www.w3.org/1999/xlink" xmlns="http://www.w3.org/2000/svg" width="126" height="36" viewBox="0 0 126 36">
  <g id="Grupo_540" data-name="Grupo 540" transform="translate(5965 2644)">
    <g id="logo-rexton-sports" transform="translate(-5950.7 -2638.64)">
      <g id="Grupo_57" transform="translate(4.633)">
        <g id="Grupo_53">
          <path id="Trazado_82" d="M58.89,1.74H45.53V2.97h4.98v5.9H53.9V2.97h4.98Z" fill="#fff"/>
          <path id="Trazado_83" d="M66.53,1.64h-.25c-5.27,0-6.35.78-6.35,3.63v.07c0,2.85,1.08,3.63,6.35,3.63h.25c5.27,0,6.35-.78,6.35-3.63V5.26C72.9,2.41,71.81,1.64,66.53,1.64ZM69.54,5.5c0,1.79-.7,2.24-3.03,2.24h-.2c-2.31,0-3.03-.43-3.03-2.24V5.1c0-1.8.7-2.22,3.03-2.24h.2c2.31.02,3.03.43,3.03,2.24Z" fill="#fff"/>
          <path id="Trazado_84" d="M14.83,4.61V6c.02,2.06.83,2.87,2.89,2.87H27.85V7.65H19.46c-1.01,0-1.26-.25-1.26-1.26V5.93h9.66V4.7H18.2V4.25c0-1.01.25-1.26,1.26-1.26h8.39V1.74H17.72C15.66,1.74,14.85,2.56,14.83,4.61Z" fill="#fff"/>
          <path id="Trazado_85" d="M8.39,1.74H1.29c-1.79,0-2.4.61-2.4,2.4V8.89H2.25V4.07h0c0-.92.18-1.1,1.1-1.1H7.14c1.01,0,1.35.47,1.35,1.21V4.2c0,.74-.36,1.21-1.35,1.21H4.17L7.62,8.88h4.12L8.92,6.24H9.4A2.315,2.315,0,0,0,11.87,4.1V3.98C11.87,2.72,11.11,1.74,8.39,1.74Z" fill="#fff"/>
          <path id="Trazado_86" d="M40.88,1.74,38.32,4.18a1.647,1.647,0,0,1-.97.49H37.1a1.768,1.768,0,0,1-.97-.49L33.57,1.74H30.03l3.91,3.57L30.03,8.88h3.54l2.65-2.51c.38-.36.63-.58.97-.58h.05c.34,0,.6.22.97.58l2.67,2.51h3.54L40.5,5.32l3.91-3.57H40.88Z" fill="#fff"/>
          <path id="Trazado_87" d="M85.59,1.74V5.62c0,.31-.09.51-.45.51a1.356,1.356,0,0,1-.76-.34L80.15,2.5a3.251,3.251,0,0,0-1.9-.78h-.18c-1.68,0-2.29.61-2.29,2.26V8.85h3.36V5.05c0-.31.09-.51.45-.51a1.517,1.517,0,0,1,.76.32l4.06,3.23a2.849,2.849,0,0,0,1.9.76h.42c1.68,0,2.24-.61,2.24-2.26V1.73H85.59Z" fill="#fff"/>
        </g>
        <g id="Grupo_56" transform="translate(0 28.656)">
          <path id="Trazado_88" d="M74.67-10.88H61.31v1.23h4.98v5.9h3.39v-5.9h4.98Z" fill="#fff"/>
          <path id="Trazado_89" d="M37.09-10.98h-.25c-5.27,0-6.35.78-6.35,3.63v.07c0,2.85,1.08,3.63,6.35,3.63h.25c5.27,0,6.35-.78,6.35-3.63v-.07C43.46-10.21,42.38-10.98,37.09-10.98ZM40.1-7.12c0,1.79-.7,2.24-3.03,2.24h-.2c-2.31,0-3.03-.43-3.03-2.24v-.4c0-1.8.7-2.22,3.03-2.24h.2c2.31.02,3.03.43,3.03,2.24Z" fill="#fff"/>
          <path id="Trazado_90" d="M56.04-10.88H48.95c-1.79,0-2.4.61-2.4,2.4v4.75h3.36v-4.8h0c0-.92.18-1.1,1.1-1.1H54.8c1.01,0,1.35.47,1.35,1.21v.02c0,.74-.36,1.21-1.35,1.21H51.82l3.45,3.47h4.12L56.56-6.36h.49A2.315,2.315,0,0,0,59.52-8.5v-.14C59.52-9.9,58.76-10.88,56.04-10.88Z" fill="#fff"/>
          <g id="Grupo_55" transform="translate(0 0.177)">
            <g id="Grupo_54">
              <path id="Trazado_91" d="M85.71-8.11h-5.2c-.7,0-.94-.32-.94-.83v-.02c0-.52.25-.85.94-.85h7.96v-1.24H79.63c-2.54,0-3.25.9-3.25,2.08v.04c0,1.17.7,2.08,3.25,2.08h5.2c.7,0,.94.32.94.85h0c0,.52-.25.85-.94.85H76.58V-3.9h9.13c2.54,0,3.25-.9,3.25-2.08v-.04C88.94-7.21,88.24-8.11,85.71-8.11Z" fill="#fff"/>
              <path id="Trazado_92" d="M8.21-8.11H3.03c-.7,0-.94-.32-.94-.83v-.02c0-.52.25-.85.94-.85h7.96v-1.24H2.14c-2.54,0-3.25.9-3.25,2.08v.04c0,1.17.7,2.08,3.25,2.08h5.2c.7,0,.94.32.94.85h0c0,.52-.25.85-.94.85H-.91V-3.9H8.22c2.54,0,3.23-.9,3.23-2.08v-.04C11.46-7.21,10.75-8.11,8.21-8.11Z" fill="#fff"/>
              <path id="Trazado_93" d="M24.42-11.05H17.34c-1.79,0-2.4.61-2.4,2.4V-3.9H18.3V-8.7h0c0-.92.18-1.1,1.1-1.1h3.79c1.01,0,1.35.47,1.35,1.19,0,.74-.36,1.21-1.35,1.21H19.25l1.64,1.23h3.54c2.73,0,3.49-.97,3.49-2.24v-.4C27.9-10.08,27.14-11.05,24.42-11.05Z" fill="#fff"/>
            </g>
          </g>
        </g>
      </g>
      <g id="Grupo_61" transform="translate(0 20.038)">
        <g id="Grupo_60">
          <g id="Grupo_59">
            <g id="Grupo_58">
              <rect id="Rectángulo_2" width="95.71" height="0.36" transform="translate(0.7 -6.89)" fill="#fff"/>
            </g>
          </g>
        </g>
      </g>
    </g>
    <rect id="Rectángulo_546" data-name="Rectángulo 546" width="126" height="36" transform="translate(-5965 -2644)" fill="none"/>
  </g>
</svg>