<svg xmlns:xlink="http://www.w3.org/1999/xlink" xmlns="http://www.w3.org/2000/svg" width="126" height="36" viewBox="0 0 126 36">
  <g id="Grupo_540" data-name="Grupo 540" transform="translate(5965 2644)">
    <g id="logo-g4" transform="translate(-5964.5 -2638)">
      <path id="Trazado_1053" data-name="Trazado 1053" d="M78.1,9.9h-.2c-6,0-6.2.6-6.2,2.8v.1c0,2.2.2,2.8,6.2,2.8h.2c6,0,6.2-.6,6.2-2.8v-.1c0-2.3-.2-2.8-6.2-2.8m3.3,2.9c0,1.4-.2,1.7-3.3,1.7h-.2c-3.1,0-3.3-.3-3.3-1.7v-.3c0-1.4.2-1.7,3.3-1.7h.2c3.1,0,3.3.3,3.3,1.7Z" fill="#fff"/>
      <path id="Trazado_1054" data-name="Trazado 1054" d="M21.8,11.8c0-.8.2-1,1-1h8.8V9.9H21.1c-1.6,0-2.2.6-2.2,2.2v1.1c0,1.6.6,2.2,2.2,2.2H31.6v-.9H22.8c-.8,0-1-.2-1-1v-.4h9.7v-.9H21.8Z" fill="#fff"/>
      <path id="Trazado_1055" data-name="Trazado 1055" d="M10.5,9.9H2.3C.9,9.9.5,10.4.5,11.7v3.6H3.4V11.6h0c0-.7.1-.8.8-.8H9.1c.8,0,1,.4,1,.9h0c0,.6-.3.9-1,.9H6l3.5,2.6H13l-3-2h.5c2.1,0,2.6-.7,2.6-1.7h0c0-.8-.6-1.6-2.6-1.6" fill="#fff"/>
      <path id="Trazado_1056" data-name="Trazado 1056" d="M50.6,9.9h-3l-2,1.9a1.623,1.623,0,0,1-1.3.4H43a1.623,1.623,0,0,1-1.3-.4l-2-1.9h-3l3,2.7-3,2.7h3l2-1.9c.3-.3.6-.4,1.4-.4h1a2.108,2.108,0,0,1,1.4.4l2,1.9h3l-3-2.7Z" fill="#fff"/>
      <path id="Trazado_1057" data-name="Trazado 1057" d="M100.1,9.9v3.3c0,.2-.1.3-.2.3h-.1l-6-3.3a3.653,3.653,0,0,0-1.5-.3h-.1c-1.4,0-1.9.5-1.9,1.7v3.7h2.9V12.1c0-.2.1-.3.2-.3h.1L99.3,15a3.653,3.653,0,0,0,1.5.3h.3c1.4,0,1.8-.5,1.8-1.7V9.9Z" fill="#fff"/>
      <g id="Grupo_431" data-name="Grupo 431">
        <path id="Trazado_1058" data-name="Trazado 1058" d="M117.2,12.4H120V11c-.5,0-.6.1-.6.1Z" fill="#fff"/>
        <path id="Trazado_1059" data-name="Trazado 1059" d="M123.8,8.6c-1-.1-2-.3-2.9-.4-1.5-.1-3.1-.2-4.6-.2h-1c-1.5,0-3.1.1-4.6.2a25.351,25.351,0,0,0-2.9.4c-.7.1-.8.3-.6,1,.7,1.8,1.3,3.6,2,5.3l.3.6a1.761,1.761,0,0,0,1.3.9l4.5.6h1l4.5-.6a1.761,1.761,0,0,0,1.3-.9l.3-.6c.7-1.8,1.3-3.6,2-5.3C124.6,8.9,124.5,8.7,123.8,8.6Zm-8.5,3.6a1.324,1.324,0,0,1-1.3,1.3h-3.6a1.324,1.324,0,0,1-1.3-1.3v-.6a1.324,1.324,0,0,1,1.3-1.3H114c1,0,1.3.5,1.3,1.1h-1.1a.792.792,0,0,0-.8-.5H111a.789.789,0,0,0-.8.8V12a.789.789,0,0,0,.8.8h2.4a.792.792,0,0,0,.8-.5H113a1.058,1.058,0,0,1-.9-.5H115a.265.265,0,0,1,.3.3Zm6.3.9h-.4v.5H120v-.5h-3.8a.294.294,0,0,1-.3-.3v-.4a.433.433,0,0,1,.2-.4s1.9-1.1,2.5-1.5a1.579,1.579,0,0,1,1.1-.3h1.2a.43.43,0,0,1,.4.4v1.8h1.1Z" fill="#fff"/>
      </g>
      <path id="Trazado_1060" data-name="Trazado 1060" d="M67.5,9.9h-13v1h5v4.5h3V10.9h5Z" fill="#fff"/>
    </g>
    <rect id="Rectángulo_546" data-name="Rectángulo 546" width="126" height="36" transform="translate(-5965 -2644)" fill="none"/>
  </g>
</svg>