<svg xmlns:xlink="http://www.w3.org/1999/xlink" xmlns="http://www.w3.org/2000/svg" width="42.68" height="36.989" viewBox="0 0 42.68 36.989">
  <g id="engine-motor-car-power" transform="translate(-2 -6)">
    <path id="Trazado_1053" data-name="Trazado 1053" d="M43.968,19.515H40.412a.711.711,0,0,0-.711.711v4.268H38.278V14.536a.711.711,0,0,0-.711-.711H30.453V11.691h7.113a.711.711,0,0,0,.7-.825L37.559,6.6a.711.711,0,0,0-.7-.6H21.206a.711.711,0,0,0-.7.6l-.711,4.268a.711.711,0,0,0,.7.825h5.691v2.134H20.495a.711.711,0,0,0-.455.164L15.97,17.381H9.825a.711.711,0,0,0-.711.711v7.113H6.979v-.541l.633-1.273a.711.711,0,0,0,.078-.32V18.093a.711.711,0,0,0-.711-.711H2.711A.711.711,0,0,0,2,18.093v4.979a.711.711,0,0,0,.078.32l.633,1.273v5.349l-.633,1.273a.711.711,0,0,0-.078.32v4.979a.711.711,0,0,0,.711.711H6.979a.711.711,0,0,0,.711-.711V31.608a.711.711,0,0,0-.078-.32l-.633-1.273v-.541H9.113V37.3a.711.711,0,0,0,.711.711h4.567l2.639,4.624a.711.711,0,0,0,.619.356H34.721a.711.711,0,0,0,.619-.356l2.845-4.979a.8.8,0,0,0,.092-.356V30.185H39.7v4.268a.711.711,0,0,0,.711.711h3.557a.711.711,0,0,0,.711-.711V20.227A.711.711,0,0,0,43.968,19.515ZM6.268,22.9l-.633,1.273a.711.711,0,0,0-.078.32v5.691a.711.711,0,0,0,.078.32l.633,1.273v4.1H3.423v-4.1l.633-1.273a.711.711,0,0,0,.078-.32V24.495a.711.711,0,0,0-.078-.32L3.423,22.9V18.8H6.268Zm2.845,5.15H6.979V26.629H9.113ZM21.334,10.268l.477-2.845H36.25l.477,2.845Zm7.7,1.423v2.134H27.608V11.691Zm7.825,25.416-2.547,4.46H18.062L16.027,38.01h3.756V36.587H10.536V18.8h5.691a.711.711,0,0,0,.455-.164l4.069-3.393h16.1ZM39.7,28.763H38.278V25.917H39.7Zm3.557,4.979H41.123v-12.8h2.134Z" transform="translate(0 0)" fill="#fff"/>
    <path id="Trazado_1054" data-name="Trazado 1054" d="M22.845,34a2.845,2.845,0,1,0,2.845,2.845A2.845,2.845,0,0,0,22.845,34Zm0,4.268a1.423,1.423,0,1,1,1.423-1.423A1.423,1.423,0,0,1,22.845,38.268Z" transform="translate(-5.196 -8.083)" fill="#fff"/>
    <ellipse id="Elipse_42" data-name="Elipse 42" cx="1" cy="1.5" rx="1" ry="1.5" transform="translate(28 19.989)" fill="#fff"/>
    <rect id="Rectángulo_532" data-name="Rectángulo 532" width="3" height="1" transform="translate(21 36.989)" fill="#fff"/>
    <path id="Trazado_1055" data-name="Trazado 1055" d="M38.8,34.659l-1.9-8.244A3.557,3.557,0,0,0,33.358,23a3.52,3.52,0,0,0-2.611,1.167L20.981,28.79a4.979,4.979,0,0,0,1,9.859H36.2A2.845,2.845,0,0,0,39.049,35.8a2.8,2.8,0,0,0-.249-1.145ZM33.358,24.423a2.134,2.134,0,1,1-2.134,2.134A2.134,2.134,0,0,1,33.358,24.423Zm-11.381,12.8a3.557,3.557,0,1,1,3.557-3.557,3.557,3.557,0,0,1-3.557,3.557Zm11.78,0h-8.3a4.965,4.965,0,0,0-1.672-8.187l6.061-2.874a3.464,3.464,0,0,0-.043.391,3.557,3.557,0,0,0,3.557,3.557A3.52,3.52,0,0,0,36.012,28.9l.967,4.183a2.8,2.8,0,0,0-.775-.121A2.845,2.845,0,0,0,33.358,35.8a2.778,2.778,0,0,0,.4,1.423Zm2.447,0A1.423,1.423,0,1,1,37.626,35.8,1.423,1.423,0,0,1,36.2,37.227Z" transform="translate(-4.328 -4.907)" fill="#fff"/>
  </g>
</svg>