<svg xmlns:xlink="http://www.w3.org/1999/xlink" xmlns="http://www.w3.org/2000/svg" width="242.077" height="38.088" viewBox="0 0 242.077 38.088">
  <g id="Grupo_276" data-name="Grupo 276" transform="translate(-18.923 -2.783)">
    <g id="Grupo_4" data-name="Grupo 4" transform="translate(18.923 2.783)">
      <g id="Grupo_3" data-name="Grupo 3" transform="translate(0 0)">
        <g id="Grupo_1" data-name="Grupo 1">
          <path id="Trazado_1" data-name="Trazado 1" d="M933.139,369.627s-3.919-1.824-3.328-4.268c0,0,.328-3.049,6.194-2.351a12.816,12.816,0,0,1,5.209,1.512l.044-4.271s-10.984-4.236-16.013,2.4c0,0-4.7,7.928,7,11.578,0,0,6.034,1.779,4.341,5.652,0,0-1.267,1.68-6.3,1.68a23.425,23.425,0,0,1-5.835-1.285v4.544s8.949,3.06,15.267-1.347c0,0,5.384-3.783.359-9.972C940.085,373.5,938.17,371.27,933.139,369.627Z" transform="translate(-855.927 -354.081)" fill="#fff"/>
          <path id="Trazado_2" data-name="Trazado 2" d="M1015.53,391.865s-1.558-1.813-5.657-3.156c0,0-3.262-.989-3.079-3.252,0,0,.077-2.5,4.855-1.934a46.368,46.368,0,0,1,4.8,1.053l.032-3.484s-9.329-3.3-13.425,2.1c0,0-3.843,6.35,5.695,9.324,0,0,5.042.945,3.66,4.1,0,0-.761,1.814-4.857,1.814a19.992,19.992,0,0,1-4.931-1.053v3.7s7.293,2.535,12.443-1.057A5.887,5.887,0,0,0,1015.53,391.865Z" transform="translate(-915.954 -370.381)" fill="#fff"/>
          <path id="Trazado_3" data-name="Trazado 3" d="M1413.961,378.578a11.142,11.142,0,1,0,11.2,11.142A11.172,11.172,0,0,0,1413.961,378.578Zm0,18.884c-3.869,0-6.415-3.465-6.415-7.742s2.01-7.744,6.415-7.744,6.418,3.468,6.418,7.744S1417.833,397.462,1413.961,397.462Z" transform="translate(-1224.241 -369.215)" fill="#fff"/>
          <path id="Trazado_4" data-name="Trazado 4" d="M1256.118,392.458l5.316-.022.023,5.669c-11.431,1.244-10.994-7.449-10.994-7.449-.045-10.54,14.611-6.834,14.611-6.834v-3.384s-18.3-4.629-19.369,9.88c0,0-.878,14.937,19.891,10.218l.013-11.28-9.48.013Z" transform="translate(-1103.333 -370.107)" fill="#fff"/>
          <path id="Trazado_5" data-name="Trazado 5" d="M1071.566,381.048l-7.966,20.585h4.263l1.94-4.467h8.954l1.914,4.476h4.262l-7.726-20.594Zm-.523,12.915,3.271-8.995,3.22,8.995Z" transform="translate(-963.151 -371.116)" fill="#fff"/>
          <path id="Trazado_6" data-name="Trazado 6" d="M1174.337,396.434l-8.815-15.454-5.523-.023v20.613h3.827V385.646l9.123,15.876,5.188.047V380.924h-3.8Z" transform="translate(-1037.36 -371.021)" fill="#fff"/>
          <path id="Trazado_7" data-name="Trazado 7" d="M1344.161,362.034l-6.582,11.594-7.084-11.594h-4.674l9.614,15.717-5.949,10.319h4.671l14.677-26.036Z" transform="translate(-1165.011 -356.481)" fill="#fff"/>
          <path id="Trazado_8" data-name="Trazado 8" d="M1602.823,389.161l-.016,3.187,5.317-.02.025,5.674c-11.435,1.24-11-7.453-11-7.453-.042-10.538,14.615-6.835,14.615-6.835v-3.386s-18.3-4.629-19.369,9.882c0,0-.88,14.94,19.891,10.217l.01-11.279Z" transform="translate(-1370.222 -370.022)" fill="#fff"/>
          <path id="Trazado_9" data-name="Trazado 9" d="M1520.842,396.474l-8.815-15.454-5.55-.013.026,20.6h3.828v-15.92l9.167,15.9,5.141.023V381.029h-3.8Z" transform="translate(-1304.083 -371.085)" fill="#fff"/>
          <path id="Trazado_10" data-name="Trazado 10" d="M1131.2,48.147c-1.792-6.614-10.35-9.951-10.35-9.951-2.284-.835-1.371.477-1.371.477s9.848,4.537,9.848,10.849c0,7.819-10.732,10.157-10.732,10.157,9.763-3.106,9.789-9.735,9.789-9.735-.172-6.631-8.905-11.271-8.905-11.271a24.527,24.527,0,0,0-5.195-2.386c-4.4-1.475-2.969.237-2.969.237s13.259,4.181,13.259,13.4c0,9.416-18.485,12.441-18.485,12.441C1123.475,59.138,1123.476,50,1123.476,50c0-8.233-12.16-13.478-12.16-13.478a27.32,27.32,0,0,0-4.924-1.8c-2.868-.611-1.241.643-1.241.643C1116.8,42.176,1116.8,49.7,1116.8,49.7a10.824,10.824,0,0,1-7.662,10.452,42.968,42.968,0,0,1-6.537,1.559,1.454,1.454,0,0,0-1.187,1.247.9.9,0,0,0,.221.632,22.552,22.552,0,0,0,1.84,1.5,2.353,2.353,0,0,1,.8,1.712c0,1.57-1.807,2.844-4.046,2.874h-.164c-2.243-.029-4.051-1.3-4.051-2.874a2.359,2.359,0,0,1,.806-1.712,22.193,22.193,0,0,0,1.837-1.5.893.893,0,0,0,.224-.632,1.453,1.453,0,0,0-1.188-1.247,42.949,42.949,0,0,1-6.536-1.559,10.824,10.824,0,0,1-7.662-10.452s0-7.526,11.644-14.332c0,0,1.628-1.255-1.241-.643a27.341,27.341,0,0,0-4.924,1.8S1076.809,41.769,1076.809,50c0,0,0,9.136,17.385,12.364,0,0-18.482-3.025-18.482-12.441,0-9.22,13.259-13.4,13.259-13.4s1.428-1.712-2.969-.237a24.5,24.5,0,0,0-5.193,2.386s-8.736,4.64-8.907,11.271c0,0,.027,6.629,9.788,9.735,0,0-10.733-2.338-10.733-10.157,0-6.311,9.852-10.849,9.852-10.849s.911-1.312-1.371-.477c0,0-8.561,3.338-10.35,9.951a8.277,8.277,0,0,0,.25,4.316c.964,2.228,3.476,5.92,9.869,7.99,0,0,2.914,1.2,14.558,3.526l.689.154s.5.221.141.618l-1.6,1.377s-2.353,1.813,1,3.338a9.634,9.634,0,0,1,3.495,2.246,4.014,4.014,0,0,0,2.5.927v.006h.107s.007,0,.014,0v0h.063v0c.007,0,.009,0,.014,0h.073v0a3.987,3.987,0,0,0,2.536-.928,9.635,9.635,0,0,1,3.494-2.246c3.358-1.525,1-3.338,1-3.338l-1.6-1.377c-.358-.4.142-.618.142-.618l.687-.154c11.646-2.331,14.558-3.526,14.558-3.526,6.4-2.07,8.909-5.762,9.87-7.99A8.275,8.275,0,0,0,1131.2,48.147Z" transform="translate(-1068.905 -34.558)" fill="#fff"/>
        </g>
      </g>
    </g>
  </g>
</svg>